<svg xmlns="http://www.w3.org/2000/svg" version="1.1" width="200" height="200">
<path d="M 37,43 L 38,43 Z" fill="black" />
<path d="M 44,23 Z" fill="black" />
<path d="M 3,19 L 3,20 Z" fill="black" />
<path d="M 6,15 L 4,17 L 5,17 L 6,18 L 5,19 L 5,20 L 5,19 L 8,16 L 9,16 L 7,16 Z" fill="black" />
<path d="M 21,7 L 20,8 L 19,8 L 19,10 L 20,11 L 19,12 L 18,12 L 17,11 L 14,11 L 13,10 L 14,9 L 16,9 L 10,9 L 8,11 L 8,13 L 9,14 L 10,14 L 10,13 L 9,12 L 9,10 L 10,9 L 11,10 L 11,11 L 12,10 L 13,10 L 14,11 L 12,13 L 12,15 L 11,16 L 13,16 L 13,14 L 14,13 L 15,14 L 15,15 L 16,16 L 16,17 L 18,17 L 19,16 L 19,15 L 20,14 L 21,15 L 21,17 L 23,17 L 24,16 L 27,16 L 28,17 L 27,18 L 25,18 L 24,19 L 23,19 L 23,20 L 22,21 L 20,19 L 19,19 L 18,20 L 17,20 L 16,19 L 15,19 L 14,18 L 12,18 L 10,20 L 10,22 L 11,23 L 12,23 L 12,21 L 13,20 L 15,22 L 14,23 L 14,24 L 13,25 L 9,25 L 9,26 L 8,27 L 7,26 L 7,24 L 8,23 L 8,19 L 9,18 L 8,19 L 8,20 L 7,21 L 7,26 L 6,27 L 5,27 L 3,25 L 4,24 L 5,24 L 4,24 L 3,23 L 4,22 L 5,22 L 4,22 L 3,23 L 3,24 L 2,25 L 2,27 L 3,28 L 3,29 L 4,30 L 4,31 L 5,31 L 5,30 L 4,29 L 5,28 L 6,28 L 7,29 L 7,32 L 10,32 L 10,31 L 9,31 L 6,28 L 6,27 L 7,26 L 10,29 L 10,27 L 11,26 L 12,26 L 13,27 L 12,28 L 12,29 L 13,28 L 14,28 L 15,29 L 13,31 L 12,31 L 17,31 L 16,30 L 16,28 L 17,27 L 18,28 L 18,29 L 19,30 L 19,31 L 21,31 L 21,29 L 19,29 L 17,27 L 17,25 L 16,24 L 16,23 L 19,20 L 21,22 L 20,23 L 19,23 L 19,26 L 20,27 L 22,27 L 22,26 L 23,25 L 23,22 L 24,21 L 25,22 L 25,23 L 26,23 L 27,24 L 25,26 L 26,27 L 24,29 L 24,30 L 23,31 L 24,30 L 25,31 L 26,31 L 27,30 L 28,30 L 29,31 L 30,31 L 29,31 L 28,30 L 29,29 L 31,29 L 32,30 L 33,30 L 34,31 L 33,32 L 32,32 L 31,33 L 29,33 L 28,34 L 26,34 L 31,34 L 34,37 L 34,38 L 36,36 L 37,37 L 37,38 L 35,40 L 37,40 L 38,41 L 39,41 L 40,40 L 38,40 L 37,39 L 37,38 L 38,37 L 39,38 L 42,38 L 40,38 L 39,37 L 40,36 L 43,36 L 42,36 L 41,35 L 41,34 L 42,33 L 43,34 L 44,34 L 44,31 L 42,31 L 41,30 L 42,29 L 44,29 L 44,26 L 43,25 L 41,25 L 40,24 L 41,23 L 42,23 L 42,22 L 43,21 L 44,21 L 43,20 L 43,19 L 41,19 L 41,20 L 40,21 L 39,20 L 39,17 L 38,18 L 35,18 L 34,17 L 35,16 L 37,16 L 38,15 L 38,14 L 37,14 L 36,13 L 37,12 L 39,12 L 40,13 L 40,15 L 41,16 L 42,16 L 41,15 L 41,14 L 40,13 L 40,12 L 39,12 L 38,11 L 36,11 L 35,12 L 34,11 L 34,9 L 33,9 L 32,8 L 31,8 L 32,9 L 31,10 L 33,12 L 32,13 L 31,13 L 30,12 L 29,13 L 28,12 L 28,11 L 29,10 L 29,8 L 28,8 L 27,7 Z" fill="black" />
</svg>